<svg xmlns="http://www.w3.org/2000/svg" width="46.001" height="34.007" viewBox="0 0 46.001 34.007">
  <path id="discord2" d="M18.906,7s-6.367.438-10.531,3.781a.467.467,0,0,0-.062.031A9.832,9.832,0,0,0,6.375,14a46.647,46.647,0,0,0-2.031,5.531A52.03,52.03,0,0,0,2,34a.971.971,0,0,0,.125.5c1.461,2.566,4.148,4.117,6.656,5.094a20.216,20.216,0,0,0,6,1.406,1,1,0,0,0,.844-.406l2.438-3.375A30.011,30.011,0,0,0,25,38a30.011,30.011,0,0,0,6.938-.781l2.438,3.375A1,1,0,0,0,35.22,41a20.216,20.216,0,0,0,6-1.406c2.508-.977,5.2-2.527,6.656-5.094A.971.971,0,0,0,48,34a52.033,52.033,0,0,0-2.344-14.469A46.653,46.653,0,0,0,43.625,14a9.832,9.832,0,0,0-1.937-3.187.468.468,0,0,0-.062-.031C37.461,7.438,31.094,7,31.094,7a1.025,1.025,0,0,0-.219,0,1,1,0,0,0-.781.594,9.5,9.5,0,0,0-.562,1.813A30.324,30.324,0,0,0,25,9a30.323,30.323,0,0,0-4.531.406,9.507,9.507,0,0,0-.562-1.812A1,1,0,0,0,18.906,7Zm-.625,2.156c.074.2.125.4.188.625a23.3,23.3,0,0,0-7.031,2.813,1,1,0,1,0,1.031,1.688C17.1,11.41,23,11,25,11s7.9.41,12.531,3.281a1,1,0,1,0,1.031-1.687,23.3,23.3,0,0,0-7.031-2.813c.063-.23.113-.422.188-.625,1.141.141,5.574.738,8.594,3.125a11.205,11.205,0,0,1,1.5,2.563,44.277,44.277,0,0,1,1.906,5.25,50.93,50.93,0,0,1,2.25,13.563A11.125,11.125,0,0,1,40.5,37.719a19.6,19.6,0,0,1-4.844,1.219l-1.687-2.281c.859-.277,1.633-.578,2.313-.875A16.55,16.55,0,0,0,40.156,33.5,1.007,1.007,0,1,0,38.813,32a13.22,13.22,0,0,1-3.344,1.969,22.851,22.851,0,0,1-3.031,1.063,1,1,0,0,0-.75.219A28.232,28.232,0,0,1,25,36a28.1,28.1,0,0,1-6.719-.781,1,1,0,0,0-.719-.156,22.587,22.587,0,0,1-3.031-1.094A13.22,13.22,0,0,1,11.188,32a1.007,1.007,0,1,0-1.344,1.5,16.548,16.548,0,0,0,3.875,2.281,23.374,23.374,0,0,0,2.313.875l-1.687,2.281A19.6,19.6,0,0,1,9.5,37.719a11.124,11.124,0,0,1-5.469-4.062,50.927,50.927,0,0,1,2.25-13.563,44.276,44.276,0,0,1,1.906-5.25,11.2,11.2,0,0,1,1.5-2.562C12.707,9.9,17.141,9.3,18.281,9.156ZM18.5,21A4.775,4.775,0,0,0,14,26a4.775,4.775,0,0,0,4.5,5A4.775,4.775,0,0,0,23,26,4.775,4.775,0,0,0,18.5,21Zm13,0A4.775,4.775,0,0,0,27,26a4.775,4.775,0,0,0,4.5,5A4.775,4.775,0,0,0,36,26a4.775,4.775,0,0,0-4.5-5Zm-13,2A2.779,2.779,0,0,1,21,26a2.779,2.779,0,0,1-2.5,3A2.779,2.779,0,0,1,16,26a2.779,2.779,0,0,1,2.5-3Zm13,0A2.779,2.779,0,0,1,34,26a2.779,2.779,0,0,1-2.5,3A2.779,2.779,0,0,1,29,26a2.779,2.779,0,0,1,2.5-3Z" transform="translate(-2 -6.994)" fill="#fff"/>
</svg>
