<svg xmlns="http://www.w3.org/2000/svg" xmlns:xlink="http://www.w3.org/1999/xlink" width="71" height="55" viewBox="0 0 71 55">
  <defs>
    <clipPath id="clip-path">
      <rect id="Rectangle_1" data-name="Rectangle 1" width="71" height="55" fill="#fff"/>
    </clipPath>
  </defs>
  <g id="discord" clip-path="url(#clip-path)">
    <path id="Path_1" data-name="Path 1" d="M60.1,4.9A58.549,58.549,0,0,0,45.653.415a.219.219,0,0,0-.232.11,40.784,40.784,0,0,0-1.8,3.7,54.052,54.052,0,0,0-16.232,0,37.406,37.406,0,0,0-1.827-3.7.228.228,0,0,0-.232-.11A58.386,58.386,0,0,0,10.878,4.9a.207.207,0,0,0-.1.082C1.578,18.731-.944,32.144.293,45.391a.244.244,0,0,0,.092.166A58.877,58.877,0,0,0,18.115,54.52a.23.23,0,0,0,.249-.082,42.081,42.081,0,0,0,3.627-5.9.225.225,0,0,0-.123-.313,38.773,38.773,0,0,1-5.538-2.64.228.228,0,0,1-.022-.378c.372-.279.744-.569,1.1-.862a.22.22,0,0,1,.229-.031,41.988,41.988,0,0,0,35.682,0,.219.219,0,0,1,.232.028c.355.293.728.586,1.1.865a.228.228,0,0,1-.02.378,36.384,36.384,0,0,1-5.541,2.637.227.227,0,0,0-.12.315,47.249,47.249,0,0,0,3.624,5.9.225.225,0,0,0,.249.084A58.681,58.681,0,0,0,70.6,45.558a.228.228,0,0,0,.092-.163A59.529,59.529,0,0,0,60.2,4.982.181.181,0,0,0,60.1,4.9ZM23.726,37.325c-3.5,0-6.381-3.212-6.381-7.156s2.827-7.156,6.381-7.156c3.582,0,6.437,3.24,6.381,7.156C30.107,34.114,27.28,37.325,23.726,37.325Zm23.592,0c-3.5,0-6.381-3.212-6.381-7.156s2.826-7.156,6.381-7.156c3.582,0,6.437,3.24,6.381,7.156C53.7,34.114,50.9,37.325,47.318,37.325Z" fill="#fff"/>
  </g>
</svg>
