<svg xmlns="http://www.w3.org/2000/svg" width="23.967" height="24.007" viewBox="0 0 23.967 24.007">
  <g id="instagram" transform="translate(-2.997 -2.981)">
    <path id="Path_1355" data-name="Path 1355" d="M26.887,10.067a8.692,8.692,0,0,0-.558-2.949,6.136,6.136,0,0,0-3.5-3.5,8.792,8.792,0,0,0-2.909-.559c-1.28-.057-1.686-.073-4.936-.073s-3.667,0-4.938.073a8.792,8.792,0,0,0-2.908.559,6.132,6.132,0,0,0-3.5,3.5,8.723,8.723,0,0,0-.558,2.908C3.014,11.307,3,11.713,3,14.963s0,3.665.075,4.938a8.746,8.746,0,0,0,.559,2.911,6.136,6.136,0,0,0,3.5,3.5,8.766,8.766,0,0,0,2.908.6c1.282.057,1.688.075,4.938.075s3.667,0,4.938-.075a8.775,8.775,0,0,0,2.909-.558,6.144,6.144,0,0,0,3.5-3.5,8.8,8.8,0,0,0,.559-2.911c.056-1.28.073-1.686.073-4.938S26.962,11.341,26.887,10.067ZM14.971,21.109a6.152,6.152,0,1,1,6.15-6.153,6.152,6.152,0,0,1-6.15,6.153Zm6.4-11.1A1.435,1.435,0,1,1,22.8,8.576,1.435,1.435,0,0,1,21.369,10.011Z" transform="translate(0 0)" fill="#fff"/>
    <path id="Path_1356" data-name="Path 1356" d="M12.988,16.969a4,4,0,1,0-4-4A4,4,0,0,0,12.988,16.969Z" transform="translate(1.984 1.984)" fill="#fff"/>
  </g>
</svg>
